<svg width="205" height="205" viewBox="0 0 205 205" fill="none" xmlns="http://www.w3.org/2000/svg">
<g opacity="0.03">
<path d="M98.4165 195.931C142.773 195.931 178.731 192.318 178.731 187.862C178.731 183.406 142.773 179.793 98.4165 179.793C54.0598 179.793 18.1016 183.406 18.1016 187.862C18.1016 192.318 54.0598 195.931 98.4165 195.931Z" fill="#000001"/>
</g>
<g opacity="0.3">
<path d="M180.827 30.0367C198.051 43.046 196.936 77.8591 195.313 102.795C194.484 115.546 190.667 127.846 180.569 134.562C153.644 152.475 36.0931 152.778 18.6927 121.126C1.29642 89.4743 7.77443 44.5015 45.6051 25.7645C78.401 9.52025 136.355 -3.55875 180.827 30.0367Z" fill="#E0E0E0"/>
</g>
<path d="M190.306 116.666H189.528V112.902C189.528 111.467 188.359 110.298 186.924 110.298H175.383C173.948 110.298 172.779 111.467 172.779 112.902V116.666H172V112.902C172 111.036 173.517 109.523 175.378 109.523H186.92C188.785 109.523 190.298 111.04 190.298 112.902V116.666H190.306Z" fill="#8F42A9"/>
<path d="M177.752 103.644C177.637 103.985 177.494 104.308 177.317 104.591C176.62 105.719 176.096 106.469 176.128 107.863C176.157 109.073 176.051 112.816 177.19 113.361C178.306 113.894 179.47 114.321 180.667 114.636C189.019 116.846 186.485 103.903 184.669 99.8026C184.472 99.3598 184.242 98.9211 183.89 98.5931C183.349 98.0888 182.586 97.9043 181.864 97.7403C178.051 96.785 178.679 100.91 177.752 103.644Z" fill="#F4A28C"/>
<path d="M29.3943 60.8037H30.0421C30.4275 60.8037 30.7391 61.1153 30.7391 61.5007V73.7556H28.6973V61.5007C28.6973 61.1153 29.0089 60.8037 29.3943 60.8037Z" fill="#24285B"/>
<path d="M39.7464 57.9168C39.7464 57.9168 33.7235 54.0833 32.5181 54.3006C30.8904 54.5958 29.1725 55.6372 27.8974 56.6417C25.749 58.335 25.38 60.3481 25.8556 62.9886C25.9786 63.6774 26.1426 64.403 26.6264 64.9073C27.1102 65.4116 28.0327 65.5633 28.4878 65.0303C28.5985 64.8991 28.6723 64.7434 28.7748 64.604C28.9388 64.3826 29.1602 64.2104 29.3816 64.0464C29.5743 63.9029 29.7752 63.7552 30.013 63.7019C30.2508 63.6486 30.5296 63.7265 30.6444 63.9397C30.7182 64.0832 30.71 64.2513 30.7469 64.4071C30.8412 64.7761 31.2225 65.0221 31.5997 65.059C32.145 65.1123 32.8789 64.8622 33.4242 64.7515C36.0646 64.2062 38.6886 63.4395 41.3864 64.1529L39.7423 57.9087L39.7464 57.9168Z" fill="#F4A28C"/>
<path d="M37.6546 100.992C37.6218 100.992 37.589 100.988 37.5562 100.98C37.3799 100.926 37.2815 100.738 37.3348 100.566L45.543 73.6614C45.6291 73.3785 46.0965 73.3785 46.1826 73.6614L54.3908 100.566C54.4441 100.742 54.3457 100.926 54.1694 100.98C53.9931 101.033 53.8086 100.935 53.7553 100.758L45.8669 74.8996L37.9785 100.758C37.9334 100.902 37.8022 100.996 37.6587 100.996L37.6546 100.992Z" fill="#24285B"/>
<path d="M36.4494 100.66H55.2766V103.809C55.2766 106.941 52.7305 109.487 49.5981 109.487H42.1238C38.9914 109.487 36.4453 106.941 36.4453 103.809V100.66H36.4494Z" fill="#8F42A9"/>
<path d="M21.7837 100.991C21.6402 100.991 21.509 100.897 21.4639 100.753L13.5755 74.8947L5.68708 100.753C5.63378 100.93 5.44518 101.028 5.27298 100.975C5.09668 100.922 4.99828 100.733 5.05158 100.561L13.2598 73.6565C13.3459 73.3736 13.8133 73.3736 13.8994 73.6565L22.1076 100.561C22.1609 100.737 22.0625 100.922 21.8862 100.975C21.8534 100.983 21.8206 100.987 21.7878 100.987L21.7837 100.991Z" fill="#24285B"/>
<path d="M4.1623 100.66H22.9895V103.809C22.9895 106.941 20.4434 109.487 17.311 109.487H9.8367C6.7043 109.487 4.1582 106.941 4.1582 103.809V100.66H4.1623Z" fill="#8F42A9"/>
<path d="M45.8637 74.088H13.5762C13.3917 74.088 13.2441 73.9404 13.2441 73.7559C13.2441 73.5714 13.3917 73.4238 13.5762 73.4238H45.8637C46.0482 73.4238 46.1958 73.5714 46.1958 73.7559C46.1958 73.9404 46.0482 74.088 45.8637 74.088Z" fill="#24285B"/>
<path d="M103.838 40.4229C103.838 40.4229 61.2141 62.6367 38.8691 56.2776V65.1295C38.8691 65.1295 54.6418 74.2561 73.92 70.6317C93.1982 67.0073 103.838 59.7626 103.838 59.7626V40.4229Z" fill="#455A64"/>
<g opacity="0.46">
<path d="M103.838 40.4229C103.838 40.4229 61.2141 62.6367 38.8691 56.2776V65.1295C38.8691 65.1295 54.6418 74.2561 73.92 70.6317C93.1982 67.0073 103.838 59.7626 103.838 59.7626V40.4229Z" fill="#455A64"/>
</g>
<path d="M104.875 21.112C104.875 21.112 104.584 25.2776 105.326 28.0287C105.629 29.1439 106.798 29.8163 107.909 29.4965C109.29 29.1029 111.045 28.164 111.472 25.9541L112.661 22.2887C112.661 22.2887 113.325 19.964 110.943 18.3117C108.561 16.6594 104.924 18.5659 104.875 21.112Z" fill="#F4A28C"/>
<path d="M111.938 23.3457L115.87 36.4493L108.494 38.0975L108.597 27.9049L111.938 23.3457Z" fill="#F4A28C"/>
<path d="M104.825 23.748L103.689 25.3757C103.41 25.7775 103.64 26.3351 104.123 26.4171L105.722 26.6918L104.82 23.748H104.825Z" fill="#F4A28C"/>
<g opacity="0.31">
<path d="M108.61 29.2626C108.61 29.2626 109.561 29.0617 111.214 27.4258C111.214 27.4258 111.574 30.1318 108.553 32.2597L108.606 29.2626H108.61Z" fill="#CE8172"/>
</g>
<path d="M110.406 23.6573C110.312 24.2272 109.91 24.7028 109.779 25.285C109.713 25.5761 109.672 25.8836 109.754 26.1665C109.906 26.6872 110.468 27.0316 111.009 27.0111C112.411 26.9537 113.051 24.4732 113.522 23.4236C113.522 23.4236 115.007 18.971 113.678 16.8062C112.629 15.0924 110.546 15.5844 109.185 14.3503C108.369 13.6123 107.791 12.4807 106.716 12.2347C105.65 11.9887 104.613 12.7636 103.957 13.641C103.281 14.543 102.809 15.6172 102.723 16.7447C102.637 17.8681 102.948 19.0407 103.674 19.9017C104.675 21.0948 106.815 21.3613 108.258 21.3572C109.303 21.3572 110.234 22.1444 110.406 23.1735C110.435 23.3375 110.431 23.4974 110.406 23.6532V23.6573Z" fill="#24285B"/>
<path d="M108.979 23.5309C108.979 23.5309 108.983 21.9237 110.192 22.0262C111.402 22.1287 111.41 24.4534 109.77 24.6953L108.975 23.5268L108.979 23.5309Z" fill="#F4A28C"/>
<path d="M148.285 69.7495C143.476 105.104 140.405 115.194 140.405 115.194L103.952 115.542C103.952 115.542 103.71 111.893 103.152 106.822C102.094 97.3671 99.9214 82.9515 96.1494 78.0479C90.3602 70.5244 78.9704 48.327 107.113 38.4296L113.456 37.0069C113.456 37.0069 127.203 35.3095 137.535 41.521C144.816 45.8875 150.405 54.1818 148.289 69.7495H148.285Z" fill="#455A64"/>
<g opacity="0.08">
<path d="M148.285 69.7496C143.476 105.104 140.405 115.194 140.405 115.194L103.952 115.543C103.952 115.543 103.71 111.894 103.152 106.822C105.407 104.596 108.06 102.722 110.754 101.033C113.144 99.5321 115.641 98.1135 117.584 96.0758C120.401 93.1279 121.832 89.159 122.992 85.2599C126.383 73.8292 128.49 70.8444 128.281 58.9134L132.463 42.5133C134.058 41.7753 135.784 41.4719 137.535 41.517C144.817 45.8835 150.405 54.1778 148.289 69.7456L148.285 69.7496Z" fill="#000001"/>
</g>
<path d="M104.727 39.3356C104.727 39.3356 102.095 75.4197 113.452 91.4343C113.452 91.4343 112.808 53.4191 122.57 37.015C122.57 37.015 113.452 34.5017 104.727 39.3315V39.3356Z" fill="white"/>
<g opacity="0.27">
<path d="M104.726 39.3359L97.5469 59.6637L103.254 69.5037L101.134 78.9911L113.447 91.4346C113.447 91.4346 103.25 82.2916 104.722 39.3359H104.726Z" fill="white"/>
</g>
<path d="M108.576 37.9341C108.617 36.8968 109.298 37.0895 110.298 36.8025C111.184 36.5442 112.319 35.4085 113.185 36.3679C114.849 38.217 111.901 41.7061 111.901 41.7061H109.179C109.179 41.7061 108.519 39.4224 108.58 37.9341H108.576Z" fill="#24285B"/>
<path d="M109.18 41.7053H111.903C111.903 41.7053 112.157 62.8367 113.957 75.3253L113.453 91.4342C113.453 91.4342 107.573 83.5827 106.643 73.5254C106.643 73.5254 106.917 53.7388 109.18 41.7012V41.7053Z" fill="#24285B"/>
<path d="M104.727 39.3357L108.06 41.7055L110.725 37.831L113.513 41.2914L122.566 37.0192C122.566 37.0192 111.619 32.583 104.723 39.3357H104.727Z" fill="#455A64"/>
<g opacity="0.55">
<path d="M104.727 39.3357L108.06 41.7055L110.725 37.831L113.513 41.2914L122.566 37.0192C122.566 37.0192 111.619 32.583 104.723 39.3357H104.727Z" fill="white"/>
</g>
<g opacity="0.27">
<path d="M122.569 37.0195L124.082 63.9032L117.022 68.1139L121.188 76.8674L113.451 91.4388C113.451 91.4388 112.98 53.2104 122.569 37.0195Z" fill="white"/>
</g>
<path d="M154.299 98.6094H79.7734V183.738H154.299V98.6094Z" fill="#24285B"/>
<path d="M162.19 178.748H71.8789V187.866H162.19V178.748Z" fill="#24285B"/>
<g opacity="0.08">
<path d="M162.19 178.748H71.8789V187.866H162.19V178.748Z" fill="white"/>
</g>
<path d="M162.19 98.2158H71.8789V107.334H162.19V98.2158Z" fill="#24285B"/>
<g opacity="0.08">
<path d="M162.19 98.2158H71.8789V107.334H162.19V98.2158Z" fill="white"/>
</g>
<g opacity="0.08">
<path d="M145.128 117.695H88.9414V171.942H145.128V117.695Z" fill="white"/>
</g>
<path d="M134.198 39.8239C134.198 39.8239 178.141 57.704 182.709 65.3874C187.276 73.0708 187.079 102.775 187.079 102.775L176.128 102.123C175.903 100.934 169.339 75.1659 166.268 71.48C163.66 68.3476 129.331 65.7113 128.277 58.9176C127.223 52.128 131.557 39.5164 134.198 39.8239Z" fill="#455A64"/>
<path d="M108.982 82.9062H79.7734V98.2156H108.982V82.9062Z" fill="#E6E6E6"/>
<path d="M105.011 77.6504H77.2578V82.9066H105.011V77.6504Z" fill="#E6E6E6"/>
<path d="M108.982 89.918H88.9043V90.6601H108.982V89.918Z" fill="#A5A5A5"/>
<path d="M99.9996 95.3955H79.9219V96.1376H99.9996V95.3955Z" fill="#A5A5A5"/>
<path d="M104.087 86.7812H84.0098V87.5233H104.087V86.7812Z" fill="#A5A5A5"/>
<path d="M105.013 79.5361H84.9355V80.2782H105.013V79.5361Z" fill="#A5A5A5"/>
<path d="M96.0267 82.9062H79.9219V83.4884H96.0267V82.9062Z" fill="#A5A5A5"/>
<path d="M200.839 115.862H161.471V144.042H200.839V115.862Z" fill="#8F42A9"/>
<g opacity="0.46">
<path d="M194.73 126.309H167.576L161.471 115.862H200.839L194.73 126.309Z" fill="white"/>
</g>
<g opacity="0.58">
<path d="M51.9011 176.821C51.9011 176.821 43.2665 174.464 41.3887 166.428C41.3887 166.428 54.767 163.726 55.1483 177.53L51.9011 176.821Z" fill="#455A64"/>
</g>
<g opacity="0.73">
<path d="M52.9586 175.964C52.9586 175.964 46.9275 166.427 52.237 157.514C52.237 157.514 62.4091 163.971 57.8909 175.984L52.9627 175.964H52.9586Z" fill="#455A64"/>
</g>
<path d="M54.5137 175.972C54.5137 175.972 57.6994 165.903 67.3344 163.996C67.3344 163.996 69.1384 170.536 61.0983 176.001L54.5137 175.972Z" fill="#455A64"/>
<path d="M48.252 175.747L50.0027 187.719L61.0235 187.764L62.6512 175.804L48.252 175.747Z" fill="#24285B"/>
</svg>
