<svg width="148" height="41" viewBox="0 0 148 41" fill="none" xmlns="http://www.w3.org/2000/svg">
<g clip-path="url(#clip0_982_3077)">
<mask id="mask0_982_3077" style="mask-type:luminance" maskUnits="userSpaceOnUse" x="0" y="24" width="44" height="17">
<path fill-rule="evenodd" clip-rule="evenodd" d="M43.937 24.5601V40.4998H0L0 24.5601H43.937Z" fill="white"/>
</mask>
<g mask="url(#mask0_982_3077)">
<path fill-rule="evenodd" clip-rule="evenodd" d="M30.9176 25.8092V29.1852C30.9176 29.8774 30.3775 30.4343 29.7103 30.4343H14.2261C13.5599 30.4343 13.0188 29.8774 13.0188 29.1852V25.8092C13.0188 25.117 12.4797 24.5601 11.8064 24.5601H0.191214C0.0834017 24.5601 0 24.6461 0 24.7562V38.3001C0 39.5167 0.956068 40.5005 2.13793 40.5005H41.8036C42.9793 40.5005 43.9374 39.5167 43.9374 38.3001V24.7562C43.9374 24.6461 43.854 24.5601 43.7503 24.5601H32.129C31.4618 24.5601 30.9176 25.117 30.9176 25.8092Z" fill="#D8475B"/>
</g>
<mask id="mask1_982_3077" style="mask-type:luminance" maskUnits="userSpaceOnUse" x="0" y="0" width="44" height="31">
<path fill-rule="evenodd" clip-rule="evenodd" d="M43.9372 30.4571V0.54834H21.9686H0V30.4571H43.9372Z" fill="white"/>
</mask>
<g mask="url(#mask1_982_3077)">
<path fill-rule="evenodd" clip-rule="evenodd" d="M35.8007 0.54834H8.13675L0 24.6396V24.8348C0 24.7248 0.0834017 24.6396 0.191214 24.6396H11.8074C12.4797 24.6396 13.0198 25.191 13.0198 25.8775V29.2192C13.0198 29.9056 13.5599 30.4571 14.2271 30.4571H29.7103C30.3775 30.4571 30.9176 29.9056 30.9176 29.2192V25.8775C30.9176 25.191 31.4618 24.6396 32.13 24.6396H43.7503C43.854 24.6396 43.9374 24.7248 43.9374 24.8348V24.6396L35.8007 0.54834Z" fill="#E4E4E4"/>
</g>
<path fill-rule="evenodd" clip-rule="evenodd" d="M11.3133 23.898C11.9873 23.898 12.5287 24.429 12.5287 25.089V28.308C12.5287 28.968 13.0702 29.5 13.739 29.5H29.261C29.9298 29.5 30.4723 28.968 30.4723 28.308V25.089C30.4723 24.429 31.0178 23.898 31.6867 23.898H37V17.5H6V23.898H11.3133Z" fill="#A3C7FF"/>
<mask id="mask2_982_3077" style="mask-type:luminance" maskUnits="userSpaceOnUse" x="0" y="0" width="44" height="41">
<path fill-rule="evenodd" clip-rule="evenodd" d="M0 40.5H44V0.5H0V40.5Z" fill="white"/>
</mask>
<g mask="url(#mask2_982_3077)">
<path fill-rule="evenodd" clip-rule="evenodd" d="M9 18.5H35V11.5H9V18.5Z" fill="#799ACC"/>
<path fill-rule="evenodd" clip-rule="evenodd" d="M11 11.5H32V4.5H11V11.5Z" fill="#5F6F88"/>
</g>
<path d="M60.38 21.04C61.2333 21.2667 61.8933 21.7 62.36 22.34C62.8267 22.98 63.06 23.72 63.06 24.56C63.06 25.7467 62.6467 26.7 61.82 27.42C61.0067 28.14 59.8267 28.5 58.28 28.5H51.98V14.42H57.8C59.32 14.42 60.4733 14.7533 61.26 15.42C62.0467 16.0867 62.44 16.9867 62.44 18.12C62.44 18.8 62.26 19.3933 61.9 19.9C61.5533 20.4067 61.0467 20.7867 60.38 21.04ZM57.54 16.9H55.02V20.28H57.54C58.1933 20.28 58.6867 20.1333 59.02 19.84C59.3533 19.5333 59.52 19.12 59.52 18.6C59.52 18.08 59.3467 17.6667 59 17.36C58.6667 17.0533 58.18 16.9 57.54 16.9ZM57.76 26.1C59.1867 26.1 59.9 25.52 59.9 24.36C59.9 23.1733 59.16 22.58 57.68 22.58H55.02V26.1H57.76ZM73.1338 28.5H70.2938L70.1138 27.38C69.3271 28.3267 68.2871 28.8 66.9938 28.8C65.9538 28.8 65.1204 28.5333 64.4938 28C63.8804 27.4533 63.5738 26.7267 63.5738 25.82C63.5738 24.9667 63.8338 24.2667 64.3538 23.72C64.8738 23.1733 65.7871 22.7533 67.0938 22.46L68.8738 22.06C69.2738 21.9667 69.5471 21.86 69.6938 21.74C69.8538 21.6067 69.9338 21.4067 69.9338 21.14C69.9338 20.8333 69.8071 20.6067 69.5538 20.46C69.3004 20.3133 68.8538 20.24 68.2138 20.24C66.7871 20.24 65.4471 20.5267 64.1938 21.1L64.4137 18.76C65.6404 18.2267 67.0138 17.96 68.5338 17.96C70.0804 17.96 71.1938 18.2533 71.8738 18.84C72.5671 19.4133 72.9138 20.2867 72.9138 21.46V25.9C72.9138 26.58 72.9871 27.4467 73.1338 28.5ZM67.8138 26.66C68.7738 26.66 69.5204 26.3333 70.0538 25.68V23.48C69.7471 23.6267 69.4338 23.7333 69.1138 23.8L68.1138 24.04C67.4871 24.2 67.0338 24.3867 66.7538 24.6C66.4738 24.8133 66.3338 25.1133 66.3338 25.5C66.3338 26.2733 66.8271 26.66 67.8138 26.66ZM74.3897 16.88V14.42H77.2297V16.88H74.3897ZM74.3897 28.5V18.26H77.2297V28.5H74.3897ZM78.7686 28.5V14.42H81.7286V28.5H78.7686ZM89.0652 17.96C90.4785 17.96 91.6118 18.4467 92.4652 19.42C93.3185 20.3933 93.7452 21.7133 93.7452 23.38C93.7452 25.06 93.3052 26.3867 92.4252 27.36C91.5585 28.32 90.3985 28.8 88.9452 28.8C87.7185 28.8 86.7585 28.3933 86.0652 27.58L85.9652 28.5H83.2452V14.42H86.2052V19.08C86.9518 18.3333 87.9052 17.96 89.0652 17.96ZM88.2052 26.5C89.0852 26.5 89.7318 26.22 90.1452 25.66C90.5718 25.1 90.7852 24.34 90.7852 23.38C90.7852 22.42 90.5718 21.66 90.1452 21.1C89.7318 20.5267 89.0852 20.24 88.2052 20.24C87.4718 20.24 86.8052 20.4867 86.2052 20.98V25.78C86.7385 26.26 87.4052 26.5 88.2052 26.5ZM103.809 27.34C102.889 28.3133 101.576 28.8 99.8692 28.8C98.1626 28.8 96.8492 28.3133 95.9292 27.34C95.0092 26.3533 94.5492 25.0333 94.5492 23.38C94.5492 21.74 95.0092 20.4267 95.9292 19.44C96.8626 18.4533 98.1759 17.96 99.8692 17.96C101.563 17.96 102.869 18.4533 103.789 19.44C104.723 20.4267 105.189 21.74 105.189 23.38C105.189 25.0333 104.729 26.3533 103.809 27.34ZM97.5092 23.38C97.5092 25.5 98.2959 26.56 99.8692 26.56C101.443 26.56 102.229 25.5 102.229 23.38C102.229 21.26 101.443 20.2 99.8692 20.2C98.2959 20.2 97.5092 21.26 97.5092 23.38ZM115.258 27.34C114.338 28.3133 113.025 28.8 111.318 28.8C109.612 28.8 108.298 28.3133 107.378 27.34C106.458 26.3533 105.998 25.0333 105.998 23.38C105.998 21.74 106.458 20.4267 107.378 19.44C108.312 18.4533 109.625 17.96 111.318 17.96C113.012 17.96 114.318 18.4533 115.238 19.44C116.172 20.4267 116.638 21.74 116.638 23.38C116.638 25.0333 116.178 26.3533 115.258 27.34ZM108.958 23.38C108.958 25.5 109.745 26.56 111.318 26.56C112.892 26.56 113.678 25.5 113.678 23.38C113.678 21.26 112.892 20.2 111.318 20.2C109.745 20.2 108.958 21.26 108.958 23.38ZM124.908 28.5L122.108 24.4L120.768 25.9V28.5H117.808V14.42H120.768V22.62L124.428 18.26H127.688L123.948 22.44L128.168 28.5H124.908ZM132.315 26.58C133.475 26.58 134.055 26.2667 134.055 25.64C134.055 25.3467 133.928 25.1267 133.675 24.98C133.435 24.82 132.955 24.66 132.235 24.5L131.355 24.32C129.248 23.8933 128.195 22.8333 128.195 21.14C128.195 20.14 128.568 19.36 129.315 18.8C130.061 18.24 131.155 17.96 132.595 17.96C134.155 17.96 135.475 18.2133 136.555 18.72L136.335 20.94C135.148 20.4333 133.968 20.18 132.795 20.18C132.195 20.18 131.768 20.2533 131.515 20.4C131.261 20.5333 131.135 20.7467 131.135 21.04C131.135 21.3333 131.261 21.5533 131.515 21.7C131.768 21.8467 132.208 21.9867 132.835 22.12L133.715 22.3C134.795 22.5267 135.608 22.88 136.155 23.36C136.715 23.84 136.995 24.54 136.995 25.46C136.995 26.4333 136.601 27.2333 135.815 27.86C135.028 28.4867 133.868 28.8 132.335 28.8C130.788 28.8 129.435 28.5 128.275 27.9L128.475 25.7C129.675 26.2867 130.955 26.58 132.315 26.58Z" fill="black"/>
</g>
<defs>
<clipPath id="clip0_982_3077">
<rect width="148" height="40" fill="white" transform="translate(0 0.5)"/>
</clipPath>
</defs>
</svg>
